<?xml version="1.0" encoding="UTF-8"?>
<svg width="24px" height="24px" viewBox="0 0 24 24" version="1.1" xmlns="http://www.w3.org/2000/svg" xmlns:xlink="http://www.w3.org/1999/xlink">
    <!-- Generator: Sketch 45.2 (43514) - http://www.bohemiancoding.com/sketch -->
    <title>icon-settings</title>
    <desc>Created with Sketch.</desc>
    <defs></defs>
    <g id="Page-1" stroke="none" stroke-width="1" fill="none" fill-rule="evenodd">
        <g id="iPhone-SE" transform="translate(-155.000000, -18.000000)" fill-rule="nonzero" fill="#333333">
            <g id="icon-settings" transform="translate(155.000000, 18.000000)">
                <path d="M12,8 C9.79466667,8 8,9.79466667 8,12 C8,14.2053333 9.79466667,16 12,16 C14.2053333,16 16,14.2053333 16,12 C16,9.79466667 14.2053333,8 12,8 Z" id="Shape"></path>
                <path d="M22.7644444,9.33333333 L21.8675556,9.33333333 C21.6386667,8.484 21.3022222,7.67111111 20.8631111,6.908 L21.4968889,6.27422222 C21.7302222,6.04088889 21.8586667,5.73022222 21.8586667,5.40044444 C21.8586667,5.07022222 21.7302222,4.76 21.4968889,4.52622222 L19.4733333,2.50266667 C19.0066667,2.03644444 18.1928889,2.03555556 17.7253333,2.50266667 L17.0915556,3.13644444 C16.3288889,2.69777778 15.516,2.36133333 14.6666667,2.13244444 L14.6666667,1.23555556 C14.6666667,0.554222222 14.1124444,0 13.4311111,0 L10.5688889,0 C9.88755556,0 9.33333333,0.554222222 9.33333333,1.23555556 L9.33333333,2.13244444 C8.484,2.36133333 7.67111111,2.69777778 6.908,3.13688889 L6.27422222,2.50311111 C5.80711111,2.03555556 4.99288889,2.03644444 4.52622222,2.50311111 L2.50266667,4.52666667 C2.26933333,4.76 2.14088889,5.07066667 2.14088889,5.40088889 C2.14088889,5.73066667 2.26933333,6.04088889 2.50266667,6.27466667 L3.13644444,6.90844444 C2.69777778,7.67111111 2.36088889,8.484 2.13244444,9.33333333 L1.23555556,9.33333333 C0.554222222,9.33333333 0,9.88755556 0,10.5688889 L0,13.4302222 C0,14.112 0.554222222,14.6666667 1.23555556,14.6666667 L2.13244444,14.6666667 C2.36133333,15.516 2.69777778,16.3288889 3.13688889,17.092 L2.50311111,17.7257778 C2.26977778,17.9591111 2.14133333,18.2697778 2.14133333,18.5995556 C2.14133333,18.9297778 2.26977778,19.24 2.50311111,19.4737778 L4.52666667,21.4973333 C4.99333333,21.9644444 5.80755556,21.9648889 6.27466667,21.4973333 L6.90844444,20.8635556 C7.67155556,21.3022222 8.48444444,21.6391111 9.33377778,21.868 L9.33377778,22.7644444 C9.33333333,23.4453333 9.88755556,24 10.5688889,24 L13.4306667,24 C14.112,24 14.6662222,23.4453333 14.6662222,22.764 L14.6662222,21.8675556 C15.5155556,21.6386667 16.3284444,21.3022222 17.0915556,20.8631111 L17.7253333,21.4968889 C18.1928889,21.9644444 19.0062222,21.9635556 19.4733333,21.4968889 L21.4968889,19.4733333 C21.7302222,19.24 21.8586667,18.9293333 21.8586667,18.5991111 C21.8586667,18.2693333 21.7302222,17.9591111 21.4968889,17.7253333 L20.8631111,17.0915556 C21.3017778,16.3284444 21.6386667,15.5155556 21.8675556,14.6662222 L22.7644444,14.6662222 C23.4457778,14.6662222 24,14.1115556 24,13.4302222 L24,10.5688889 C24,9.88755556 23.4457778,9.33333333 22.7644444,9.33333333 Z M17.3333333,12 C17.3333333,14.9408889 14.9408889,17.3333333 12,17.3333333 C9.05911111,17.3333333 6.66666667,14.9408889 6.66666667,12 C6.66666667,9.05911111 9.05911111,6.66666667 12,6.66666667 C14.9408889,6.66666667 17.3333333,9.05911111 17.3333333,12 Z" id="Shape"></path>
            </g>
        </g>
    </g>
</svg>