<?xml version="1.0" encoding="UTF-8"?>
<svg width="19px" height="24px" viewBox="0 0 19 24" version="1.1" xmlns="http://www.w3.org/2000/svg" xmlns:xlink="http://www.w3.org/1999/xlink">
    <!-- Generator: Sketch 45.2 (43514) - http://www.bohemiancoding.com/sketch -->
    <title>refresh</title>
    <desc>Created with Sketch.</desc>
    <defs></defs>
    <g id="Page-1" stroke="none" stroke-width="1" fill="none" fill-rule="evenodd">
        <g id="iPhone-SE" transform="translate(-285.000000, -15.000000)" fill-rule="nonzero" fill="#333333">
            <g id="refresh" transform="translate(285.000000, 15.000000)">
                <path d="M0.092195122,12.8203902 C-0.0541463415,11.5520976 0.067804878,10.3277073 0.399512195,9.196 C1.50195122,5.43502439 4.9604878,2.66917073 9.06292683,2.62039024 L9.06292683,0.161853659 C9.06292683,0.0252682927 9.23365854,-0.047902439 9.34585366,0.0350243902 L14.4043902,3.75209756 C14.4873171,3.8155122 14.4873171,3.94234146 14.4043902,4.00087805 L9.35073171,7.71795122 C9.23365854,7.80087805 9.06780488,7.72770732 9.06780488,7.59112195 L9.06780488,5.13746341 C6.3702439,5.18136585 4.06780488,6.84478049 3.07756098,9.196 C2.70195122,10.0838049 2.51170732,11.0642927 2.56536585,12.093561 C2.63853659,13.5081951 3.1702439,14.8106341 4.00926829,15.8642927 C4.45804878,16.4252683 4.35073171,17.2447805 3.7702439,17.6691707 C3.21902439,18.0740488 2.44829268,17.9618537 2.02390244,17.4252683 C0.984878049,16.1277073 0.292195122,14.5472195 0.092195122,12.8203902 Z M14.6970732,8.09843902 C15.5409756,9.14721951 16.0726829,10.4545366 16.1409756,11.8691707 C16.1946341,12.9033171 15.9995122,13.8838049 15.6287805,14.7667317 C14.6385366,17.1179512 12.3360976,18.7862439 9.63853659,18.8252683 L9.63853659,16.3716098 C9.63853659,16.2350244 9.46780488,16.1618537 9.35560976,16.2447805 L4.29707317,19.9618537 C4.21414634,20.0252683 4.21414634,20.1520976 4.29707317,20.2106341 L9.35073171,23.9277073 C9.46780488,24.0106341 9.63365854,23.9374634 9.63365854,23.800878 L9.63365854,21.3423415 C13.7360976,21.298439 17.1995122,18.5325854 18.2970732,14.7667317 C18.6287805,13.6350244 18.7458537,12.4106341 18.6043902,11.1423415 C18.4092683,9.4155122 17.7165854,7.83502439 16.677561,6.53746341 C16.2482927,6.00087805 15.482439,5.88868293 14.9312195,6.29356098 C14.3556098,6.71795122 14.2482927,7.53746341 14.6970732,8.09843902 Z" id="Shape"></path>
            </g>
        </g>
    </g>
</svg>