<?xml version="1.0" encoding="UTF-8"?>
<svg width="24px" height="21px" viewBox="0 0 24 21" version="1.1" xmlns="http://www.w3.org/2000/svg" xmlns:xlink="http://www.w3.org/1999/xlink">
    <!-- Generator: Sketch 45.2 (43514) - http://www.bohemiancoding.com/sketch -->
    <title>icon-persons</title>
    <desc>Created with Sketch.</desc>
    <defs></defs>
    <g id="Page-1" stroke="none" stroke-width="1" fill="none" fill-rule="evenodd">
        <g id="iPhone-SE" transform="translate(-42.000000, -73.000000)" fill-rule="nonzero" fill="#FFFFFF">
            <g id="icon-persons" transform="translate(42.000000, 73.000000)">
                <path d="M22.4864,10.4965333 C21.6522667,9.65493333 20.5498667,9.1424 19.3797333,9.03413333 C20.3898667,8.12533333 21.0272,6.81333333 21.0272,5.34773333 C21.0272,2.60586667 18.8053333,0.384 16.0629333,0.384 C13.4437333,0.384 11.2992,2.4128 11.1130667,4.984 C13.4432,5.992 15.0784,8.31413333 15.0784,11.0101333 C15.0784,11.9946667 14.8544,12.9568 14.4378667,13.8298667 C15.0378667,14.1434667 15.5909333,14.5488 16.0730667,15.0352 C17.3093333,16.28 18.0117333,18.0010667 17.9984,19.7557333 L17.9973333,19.7914667 L17.9962667,19.8218667 L17.9525333,20.6522667 L23.8986667,20.6522667 L23.9477333,14.0762667 C23.9578667,12.7349333 23.4325333,11.4485333 22.4864,10.4965333 Z" id="Shape"></path>
                <path d="M11.8314667,14.6976 C12.8410667,13.7893333 13.4805333,12.4768 13.4805333,11.0112 C13.4805333,8.2688 11.2576,6.0464 8.51573333,6.0464 C5.77333333,6.0464 3.55093333,8.2688 3.55093333,11.0112 C3.55093333,12.4741333 4.18773333,13.7856 5.19573333,14.6944 C2.6144,14.8944 0.575466667,17.032 0.5568,19.664 L0.507733333,20.6522667 L8.056,20.6522667 L16.3509333,20.6522667 L16.4,19.7381333 C16.4096,18.3973333 15.8837333,17.1109333 14.9381333,16.1589333 C14.1029333,15.3168 13.0010667,14.8058667 11.8314667,14.6976 Z" id="Shape"></path>
            </g>
        </g>
    </g>
</svg>