<?xml version="1.0" encoding="UTF-8"?>
<svg width="19px" height="24px" viewBox="0 0 19 24" version="1.1" xmlns="http://www.w3.org/2000/svg" xmlns:xlink="http://www.w3.org/1999/xlink">
    <!-- Generator: Sketch 45.2 (43514) - http://www.bohemiancoding.com/sketch -->
    <title>icon-places</title>
    <desc>Created with Sketch.</desc>
    <defs></defs>
    <g id="Page-1" stroke="none" stroke-width="1" fill="none" fill-rule="evenodd">
        <g id="iPhone-SE" transform="translate(-256.000000, -70.000000)" fill-rule="nonzero" fill="#FFFFFF">
            <g id="icon-places" transform="translate(256.000000, 70.000000)">
                <path d="M8.95325062,0.00590769231 C4.33667494,0.167892804 0.501439206,3.7696794 0.0583622829,8.36719801 C-0.0321588089,9.28670174 0.020248139,10.1776199 0.182233251,11.0304238 L0.182233251,11.0304238 C0.182233251,11.0304238 0.196526055,11.1304734 0.244168734,11.3210442 C0.387096774,11.9594561 0.601488834,12.5788109 0.868287841,13.1600516 C1.7973201,15.3611434 3.94600496,19.0439226 8.76744417,23.050672 C9.06282878,23.2984139 9.49637717,23.2984139 9.79652605,23.050672 C14.6179653,19.0486868 16.7666501,15.3659077 17.7004467,13.1552873 C17.9720099,12.5740467 18.1816377,11.9594561 18.3245658,11.3162799 C18.3674442,11.1304734 18.3865012,11.0256596 18.3865012,11.0256596 L18.3865012,11.0256596 C18.4960794,10.4539474 18.5532506,9.86794243 18.5532506,9.26764467 C18.5532506,4.03647841 14.222531,-0.179898759 8.95325062,0.00590769231 Z M9.28198511,13.8794561 C6.79503722,13.8794561 4.77975186,11.8641707 4.77975186,9.37722283 C4.77975186,6.89027494 6.79503722,4.87498958 9.28198511,4.87498958 C11.768933,4.87498958 13.7842184,6.89027494 13.7842184,9.37722283 C13.7842184,11.8641707 11.768933,13.8794561 9.28198511,13.8794561 Z" id="Shape"></path>
            </g>
        </g>
    </g>
</svg>